<mxfile host="app.diagrams.net" modified="2024-01-29T13:33:06.403Z" agent="Mozilla/5.0 (Macintosh; Intel Mac OS X 10_15_7) AppleWebKit/537.36 (KHTML, like Gecko) Chrome/119.0.0.0 Safari/537.36" version="23.0.2" etag="dDMMOXaJpTYLrBnhGi6n" type="github">
  <diagram name="Страница — 1" id="lGh3kBE2xOvhIrxHBGH3">
    <mxGraphModel>
      <root>
        <mxCell id="0" />
        <mxCell id="1" parent="0" />
      </root>
    </mxGraphModel>
  </diagram>
</mxfile>
